<?xml version="1.0" standalone="no"?>
<!DOCTYPE svg PUBLIC "-//W3C//DTD SVG 20010904//EN"
 "http://www.w3.org/TR/2001/REC-SVG-20010904/DTD/svg10.dtd">
<svg version="1.0" xmlns="http://www.w3.org/2000/svg"
 width="1714.000000pt" height="316.000000pt" viewBox="0 0 1714.000000 316.000000"
 preserveAspectRatio="xMidYMid meet">
<metadata>
Created by potrace 1.16, written by Peter Selinger 2001-2019
</metadata>
<g transform="translate(0.000000,316.000000) scale(0.100000,-0.100000)"
fill="#000000" stroke="none">
<path d="M1373 3025 c-307 -48 -589 -198 -814 -431 -278 -290 -410 -618 -410
-1019 0 -421 147 -765 452 -1060 232 -225 485 -349 807 -395 122 -18 411 -8
532 19 282 62 512 193 726 413 207 212 325 426 385 698 26 119 37 414 19 535
-46 316 -171 572 -390 799 -242 250 -510 393 -832 441 -118 18 -361 18 -475 0z
m472 -29 c400 -61 731 -278 984 -644 l22 -32 -44 -19 c-25 -11 -85 -45 -134
-76 -62 -40 -95 -55 -112 -52 -13 3 -75 -8 -138 -24 -141 -36 -269 -56 -437
-69 -142 -11 -334 -12 -411 -2 -47 7 -50 9 -53 39 l-3 33 53 -25 c127 -59 168
-15 168 179 0 56 -5 121 -11 145 -9 38 -7 47 10 65 11 12 22 37 23 56 l3 35
-140 9 c-226 14 -286 -12 -335 -143 -38 -103 -20 -212 42 -256 22 -15 24 -14
42 7 l19 23 -6 -25 c-3 -14 -11 -51 -18 -82 l-12 -58 -52 0 c-36 0 -60 -6 -74
-17 -27 -23 -109 -206 -165 -370 -140 -410 -202 -844 -160 -1126 l6 -39 262 4
c296 4 306 6 371 80 40 45 53 73 75 156 l11 42 129 0 c72 0 130 2 130 4 0 1
-22 74 -50 160 -27 86 -50 158 -50 159 0 1 53 -24 118 -55 64 -32 182 -82 262
-112 l145 -54 28 34 c16 19 35 34 43 34 8 0 41 -25 74 -55 33 -30 67 -55 76
-55 9 0 24 10 34 22 16 21 27 23 103 23 88 0 101 3 89 21 -11 18 -121 70 -195
93 -69 21 -111 43 -102 53 3 3 -34 34 -82 68 -178 127 -373 294 -484 415 l-39
43 122 41 c211 72 608 280 608 319 0 9 -4 33 -9 52 -5 19 -12 47 -15 61 l-6
26 85 7 c105 8 135 18 135 48 0 13 21 47 45 77 l45 53 50 -103 c92 -193 130
-374 130 -614 0 -399 -126 -714 -399 -999 -220 -228 -491 -372 -796 -421 -116
-19 -364 -19 -480 0 -365 59 -683 255 -914 562 -197 261 -280 518 -281 860 0
403 134 726 420 1013 221 220 462 349 747 399 132 24 368 27 498 7z"/>
<path d="M4843 3025 c-541 -85 -1015 -503 -1168 -1030 -109 -377 -56 -840 132
-1150 101 -168 253 -339 396 -446 l78 -58 -86 -68 c-47 -37 -85 -73 -85 -80 0
-17 38 -40 81 -48 30 -5 49 1 122 39 48 25 93 46 102 46 8 0 30 -13 48 -30 41
-36 84 -42 67 -10 -13 24 -16 24 56 -1 176 -62 327 -83 552 -76 285 8 471 61
697 195 136 81 300 226 412 365 l55 69 66 -4 c75 -4 92 12 42 39 -66 37 -65
31 -16 123 56 106 99 226 127 350 26 119 37 414 19 535 -46 316 -171 572 -390
799 -242 250 -510 393 -832 441 -118 18 -361 18 -475 0z m472 -29 c167 -26
292 -66 435 -142 266 -141 496 -378 630 -649 100 -203 140 -380 140 -630 0
-248 -40 -427 -138 -625 -51 -103 -60 -115 -82 -113 -36 2 -141 43 -135 53 3
4 -20 27 -50 50 -133 102 -261 268 -454 585 -163 267 -232 369 -316 468 -36
42 -65 85 -65 97 0 13 -7 20 -20 20 -13 0 -20 7 -20 19 0 10 -3 32 -6 49 l-6
31 61 -25 c85 -35 129 -30 156 16 18 31 20 52 20 175 0 98 4 144 13 153 17 18
15 97 -3 131 -22 43 -70 79 -128 96 -130 39 -218 28 -275 -33 -18 -21 -51 -56
-73 -78 -50 -54 -51 -85 -3 -184 20 -41 45 -100 55 -130 11 -29 23 -56 27 -60
4 -3 2 -33 -6 -67 l-14 -63 -61 6 c-34 3 -95 12 -136 20 -96 18 -155 18 -197
-2 -68 -32 -82 -112 -38 -211 30 -69 66 -110 104 -118 l28 -6 -55 -87 c-228
-362 -371 -852 -362 -1245 1 -73 -1 -93 -17 -114 l-19 -25 -70 53 c-264 201
-465 491 -541 783 -48 185 -58 443 -24 641 50 291 177 531 400 755 221 220
462 349 747 399 132 24 368 27 498 7z m434 -2138 c72 -33 157 -61 245 -78 46
-9 64 -9 82 1 22 11 28 8 81 -41 32 -30 59 -55 61 -56 2 -1 -36 -43 -85 -94
-229 -241 -496 -385 -808 -435 -106 -17 -355 -20 -458 -4 -95 14 -211 44 -296
75 -66 24 -69 27 -81 69 -15 53 -6 99 26 128 13 12 44 67 69 122 l45 100 334
3 335 2 11 38 c6 20 14 74 17 119 l6 82 131 3 c128 3 131 4 134 26 l3 22 42
-26 c23 -14 71 -39 106 -56z"/>
<path d="M8303 3025 c-307 -48 -589 -198 -814 -431 -278 -290 -410 -618 -410
-1019 0 -330 87 -602 273 -856 26 -37 48 -70 48 -75 0 -5 -35 -27 -78 -49 -88
-46 -101 -69 -53 -98 39 -23 84 -22 159 4 74 25 100 20 127 -21 11 -16 24 -30
28 -30 4 0 51 -31 105 -69 205 -147 397 -225 650 -261 122 -18 411 -8 532 19
282 62 512 193 726 413 207 212 325 426 385 698 26 119 37 414 19 535 -46 316
-171 572 -390 799 -242 250 -510 393 -832 441 -118 18 -361 18 -475 0z m472
-29 c167 -26 292 -66 435 -142 398 -211 685 -606 755 -1039 19 -116 19 -364 0
-480 -47 -291 -172 -537 -384 -759 -220 -228 -491 -372 -796 -421 -116 -19
-364 -19 -480 0 -234 38 -451 132 -635 277 -70 55 -80 72 -80 144 0 48 16 83
44 94 41 15 173 203 322 457 41 70 74 124 74 119 0 -4 -9 -43 -20 -86 -26
-102 -60 -301 -60 -351 l0 -39 344 0 344 0 10 47 c6 27 13 74 17 106 l7 57
114 0 115 0 5 29 c6 27 10 29 68 34 144 14 379 130 503 250 41 40 42 40 27 70
-15 27 -14 31 3 47 10 9 47 22 83 29 73 14 124 37 115 52 -4 5 10 38 29 73 20
35 36 67 36 70 0 26 -119 -43 -170 -99 -30 -32 -90 -65 -130 -70 -15 -2 -78
-20 -140 -40 -184 -59 -311 -64 -380 -15 -30 22 -96 143 -154 283 -44 107
-115 249 -150 300 -14 21 -26 42 -26 46 0 5 20 4 45 -2 38 -9 48 -8 65 8 11
10 24 34 30 54 13 48 11 225 -3 280 -12 43 -11 45 21 77 22 22 32 41 32 62 l0
30 -133 7 c-140 7 -194 0 -233 -33 -60 -49 -98 -158 -83 -236 10 -54 20 -74
48 -100 28 -25 28 -66 1 -66 -12 0 -54 -22 -94 -49 -422 -285 -699 -715 -806
-1251 -18 -88 -29 -121 -47 -140 l-24 -25 -25 30 c-43 52 -130 187 -163 252
-98 196 -141 390 -141 640 0 403 134 726 420 1013 221 220 462 349 747 399
132 24 368 27 498 7z"/>
<path d="M11773 3025 c-307 -48 -589 -198 -814 -431 -278 -290 -410 -618 -410
-1019 0 -410 135 -737 425 -1032 l100 -103 -39 -41 c-22 -22 -71 -64 -108 -92
-81 -62 -85 -85 -19 -106 42 -13 45 -12 128 28 47 23 92 41 99 41 7 0 29 -14
50 -30 49 -39 61 -27 35 34 -31 74 -27 80 33 42 157 -100 341 -165 555 -196
122 -18 411 -8 532 19 282 62 512 193 726 413 207 212 325 426 385 698 26 119
37 414 19 535 -46 316 -171 572 -390 799 -242 250 -510 393 -832 441 -118 18
-361 18 -475 0z m472 -29 c167 -26 292 -66 435 -142 398 -211 685 -606 755
-1039 19 -116 19 -364 0 -480 -47 -291 -172 -537 -384 -759 -220 -228 -491
-372 -796 -421 -116 -19 -364 -19 -480 0 -182 29 -383 106 -538 205 l-47 30
16 38 c9 20 23 54 32 74 l15 38 186 2 186 3 6 120 c4 66 7 144 8 173 l1 52
350 0 c273 0 350 3 350 13 0 6 -7 37 -15 67 -8 30 -13 55 -12 56 1 1 38 -15
82 -36 136 -66 225 -84 412 -85 89 0 164 3 168 6 5 6 -36 342 -51 407 -4 22
-3 22 100 22 101 0 104 1 110 24 3 13 26 42 51 64 72 63 56 78 -46 43 -30 -10
-78 -30 -106 -45 -48 -24 -65 -26 -225 -32 -144 -6 -187 -4 -250 10 -159 35
-280 126 -351 263 -38 73 -77 202 -77 255 0 21 -5 28 -19 28 -26 0 -31 9 -38
71 l-6 51 42 -22 c24 -12 61 -22 83 -23 33 -2 44 3 62 26 19 26 21 41 21 177
0 137 1 149 19 154 14 4 17 11 12 29 -4 18 1 30 19 47 30 28 33 60 6 60 -10 0
-21 7 -25 15 -3 8 -15 15 -26 15 -17 0 -20 6 -20 44 0 53 -10 62 -49 43 -28
-14 -31 -13 -52 9 -25 27 -74 32 -103 11 -16 -11 -26 -11 -62 2 -40 14 -47 14
-72 1 -15 -9 -32 -31 -38 -50 -12 -35 -12 -35 -62 -32 -45 3 -52 1 -68 -23
-17 -26 -14 -48 12 -112 3 -8 -2 -13 -12 -13 -45 0 -73 -72 -39 -100 9 -8 13
-21 9 -36 -5 -18 1 -31 26 -54 18 -16 36 -30 41 -30 18 0 59 -52 59 -75 0 -21
5 -25 29 -25 17 0 33 5 36 10 13 20 25 9 19 -17 -23 -105 -24 -106 -53 -100
-24 5 -37 -4 -103 -71 -233 -239 -400 -508 -527 -846 -56 -150 -132 -428 -145
-531 -6 -46 -16 -75 -25 -75 -16 0 -186 187 -243 266 -179 250 -257 504 -258
831 0 403 134 726 420 1013 221 220 462 349 747 399 132 24 368 27 498 7z"/>
<path d="M15233 3025 c-307 -48 -589 -198 -814 -431 -278 -290 -410 -618 -410
-1019 0 -409 135 -737 423 -1030 l98 -100 -58 -34 c-31 -19 -60 -39 -64 -44
-18 -28 37 -67 97 -67 19 0 62 11 95 25 l60 25 52 -34 c158 -100 341 -165 556
-196 122 -18 411 -8 532 19 284 63 512 193 731 417 l97 99 48 -7 c74 -11 86 7
30 44 l-34 24 39 59 c94 144 162 305 200 475 26 119 37 414 19 535 -46 316
-171 572 -390 799 -242 250 -510 393 -832 441 -118 18 -361 18 -475 0z m472
-29 c167 -26 292 -66 435 -142 398 -211 685 -606 755 -1039 19 -116 19 -364 0
-480 -30 -189 -105 -383 -205 -536 l-43 -67 -66 31 c-69 32 -112 57 -97 57 5
0 -18 28 -51 63 -82 86 -169 205 -236 326 -31 55 -57 103 -57 106 0 2 -60 127
-133 277 -78 159 -162 314 -200 371 -37 54 -67 107 -67 117 0 14 -11 22 -42
30 -24 6 -49 14 -57 18 -15 9 -85 162 -77 169 2 3 13 0 24 -6 23 -12 127 -14
157 -2 18 7 20 17 20 100 0 50 -2 91 -5 91 -3 0 -16 33 -28 74 -13 41 -37 96
-54 123 -19 28 -32 62 -32 83 l-1 35 -107 -2 c-96 -1 -113 -4 -150 -26 -81
-48 -118 -109 -118 -195 0 -88 40 -165 106 -204 l34 -20 0 -84 c0 -46 -3 -84
-7 -84 -5 0 -44 12 -88 26 -119 38 -195 23 -233 -47 -34 -63 13 -215 79 -258
l37 -23 -80 -107 c-209 -277 -355 -596 -422 -922 -27 -127 -48 -288 -40 -301
5 -8 -84 -78 -99 -78 -20 0 -162 149 -236 247 -196 261 -280 518 -281 860 0
403 134 726 420 1013 221 220 462 349 747 399 132 24 368 27 498 7z m294
-2114 c63 -50 197 -116 297 -147 70 -22 80 -23 95 -9 15 13 20 10 54 -35 49
-64 78 -80 103 -58 10 10 23 17 28 17 16 0 -139 -151 -221 -214 -105 -81 -160
-115 -275 -170 -186 -88 -369 -126 -605 -126 -229 0 -426 40 -585 118 l-75 37
-20 78 c-18 70 -18 81 -5 120 8 23 21 42 28 42 8 0 42 46 76 102 34 56 64 104
67 107 2 3 148 -10 324 -29 175 -18 323 -32 327 -29 10 6 43 116 53 173 l7 43
57 -6 c195 -21 192 -21 198 3 7 29 16 27 72 -17z"/>
</g>
</svg>
