<svg xmlns="http://www.w3.org/2000/svg" xmlns:xlink="http://www.w3.org/1999/xlink" width="1920" height="1080" viewBox="0 0 1920 1080">
  <defs>
    <clipPath id="clip-Web_1920_2">
      <rect width="1920" height="1080"/>
    </clipPath>
  </defs>
  <g id="Web_1920_2" data-name="Web 1920 – 2" clip-path="url(#clip-Web_1920_2)">
    <rect width="1920" height="1080" fill="#fff"/>
    <g id="Ellipse_2" data-name="Ellipse 2" transform="translate(125 516)" fill="none" stroke="#000" stroke-width="3">
      <circle cx="147" cy="147" r="147" stroke="none"/>
      <circle cx="147" cy="147" r="145.5" fill="none"/>
    </g>
    <g id="Ellipse_3" data-name="Ellipse 3" transform="translate(472 516)" fill="none" stroke="#000" stroke-width="3">
      <circle cx="147" cy="147" r="147" stroke="none"/>
      <circle cx="147" cy="147" r="145.5" fill="none"/>
    </g>
    <g id="Ellipse_4" data-name="Ellipse 4" transform="translate(818 516)" fill="none" stroke="#000" stroke-width="3">
      <circle cx="147" cy="147" r="147" stroke="none"/>
      <circle cx="147" cy="147" r="145.5" fill="none"/>
    </g>
    <g id="Ellipse_5" data-name="Ellipse 5" transform="translate(1165 516)" fill="none" stroke="#000" stroke-width="3">
      <circle cx="147" cy="147" r="147" stroke="none"/>
      <circle cx="147" cy="147" r="145.5" fill="none"/>
    </g>
    <g id="Ellipse_6" data-name="Ellipse 6" transform="translate(1511 516)" fill="none" stroke="#000" stroke-width="3">
      <circle cx="147" cy="147" r="147" stroke="none"/>
      <circle cx="147" cy="147" r="145.5" fill="none"/>
    </g>
    <g id="A_Human_Standing" data-name="A Human/Standing" transform="translate(484 516)">
      <g id="Head_Front" data-name="Head/Front" transform="translate(67)">
        <g id="Head" transform="translate(59.727 34.094)">
          <path id="Head-2" data-name="Head" d="M0,81,9.246,38.269c-5.156-6-8.646-13.357-8.063-21.6C2.863-7.074,36.2-1.85,42.684,10.135S48.4,52.52,40.018,54.662c-3.343.854-10.462-1.238-17.709-5.569L26.858,81Z" transform="translate(0.273 -0.094)"/>
        </g>
        <path id="Hair" d="M11.483,51.168C8.163,36.359-1.3,26.264.149,19.645a11.249,11.249,0,0,1,7.7-8.232S11.084-1.71,28.718.249s28.4,9.3,23.749,25.458c-4.273,0-9.43-1.549-16.563,1.105-3.395,1.263-4.856,7.835-4.856,7.835H27.826s-4.692-7.8-9.253-5.732S16.5,38.958,16.5,38.958l-1.588,12.21Z" transform="translate(55.11 26.527)"/>
      </g>
      <g id="Body_Long_Sleeve_1" data-name="Body/Long Sleeve 1" transform="translate(0 90)">
        <path id="Skin" d="M1.352,95.9c-1.23-.76-2.577-3.624.678-5.862,8.11-5.575,19.8-15.332,21.376-18.545,3.23-6.569,14.229-70.6,14.229-70.6L60.667.985S39.335,70.029,37.635,74.254c-2.55,6.337,2.847,15.989,5.154,21.175-3.638,1.632-5.328-.452-7.178-2.535-1.972-2.221-4.128-4.442-9.02-2.159-6.261,2.92-11.437,7.556-17.607,7.556A14.29,14.29,0,0,1,1.352,95.9ZM199.668,33.738,164.853,19.263,172.624,0l35.159,25.884a94.472,94.472,0,0,1,23.9,9.629c1.512,1.38,3.338,4.176-2.929,3.694s-12.882-.709-13.747,1.434,2.928,4.706,1.179,7.6a.83.83,0,0,1-.763.412Q212.333,48.653,199.668,33.738Z" transform="translate(37.654 101.9)"/>
        <path id="Coat_Back" data-name="Coat Back" d="M0,2.465,9.352,0c37.9,27.429,57.494,84.778,103.391,112.051l-9.263,13.826C27.757,123.133,2.935,53.261,0,2.465Z" transform="matrix(0.996, 0.087, -0.087, 0.996, 140.959, 3.436)"/>
        <path id="Shirt" d="M0,125.978H84.331c3.853,0,3.127-5.579,2.57-8.394C80.472,85.095,55.376,50.072,55.376,3.824L31.051,0C10.931,32.443,3.973,72.387,0,125.978Z" transform="translate(99.198)"/>
        <path id="Coat_Front" data-name="Coat Front" d="M.112,176.273C-1.834,113.2,21.986,64.657,41.92,35.391a12.787,12.787,0,0,1-10.947-6.743C22.083,12.564,25.293,3.708,34.8.8S52.77,3.883,67.908,3.883a11.769,11.769,0,0,1,1.8.129l8.072.462s32.772,111.358,18.077,148.594H29.206A212.3,212.3,0,0,1,18.2,176.273Z" transform="translate(60.509 -3.882)"/>
        <path id="Shade" d="M24.913,40.386H0C4.569,29.384,9.609,15.8,14.98,0c2.237,19.467,5.578,33.054,9.932,40.384Z" transform="translate(89.715 108.798)"/>
      </g>
    </g>
    <g id="Head_Front-2" data-name="Head/Front" transform="matrix(0.966, -0.259, 0.259, 0.966, 1567.525, 532.28)">
      <g id="Head-3" data-name="Head" transform="translate(58.487 33.523)">
        <path id="Head-4" data-name="Head" d="M0,78.939,8.949,37.3C3.958,31.447.58,24.279,1.144,16.248,2.771-6.894,35.036-1.8,41.312,9.877s5.531,41.307-2.58,43.394c-3.235.833-10.126-1.207-17.14-5.428l4.4,31.1Z" transform="translate(0 0)"/>
      </g>
      <path id="Hair-2" data-name="Hair" d="M21.885,48.717c-1.746-5.265-2.411-20.424-2.573-24.9a6.577,6.577,0,0,0-.78-.046A6.486,6.486,0,0,0,13.992,34.9c-1.5,2.119-3.188,4.333-5.12,6.617C1.617,37.17-3.766,24.448,3.327,12.229c1.96-5.986,6.4-9.184,11.64-10.669A18.883,18.883,0,0,1,27.341.649c7.293.625,13.806,2.846,15.652,4.164,0,6.893-1.338,8.939-12.766,8.759-2.808,1.48-4.967,4.03-7.215,7.372.016.223,1.527,20.758,7.9,20.758,6.4,0,11.837-4.059,14.647-4.059,2.048,0,1.591,2.56.233,4.456-1.12,1.566-6.575,3.074-6.575,5.5,0,1.37,1.374,1.368,2.57,1.365.922,0,1.739,0,1.739.624,0,2.381.758,6.857-3.382,6.857C35.953,56.448,23.943,54.924,21.885,48.717Z" transform="translate(58.366 31.381)"/>
    </g>
    <g id="Body_Long_Sleeve_1-2" data-name="Body/Long Sleeve 1" transform="matrix(0.995, 0.105, -0.105, 0.995, 1534.073, 591.036)">
      <path id="Skin-2" data-name="Skin" d="M1.329,93.844C.12,93.1-1.2,90.3,1.994,88.107,9.964,82.652,21.448,73.1,23,69.961,26.174,63.532,36.982.874,36.982.874l22.633.09s-20.963,67.564-22.633,71.7c-2.506,6.2,2.8,15.646,5.065,20.721-3.575,1.6-5.236-.442-7.053-2.481-1.938-2.173-4.056-4.346-8.864-2.113-6.152,2.858-11.239,7.394-17.3,7.394A14.084,14.084,0,0,1,1.329,93.844Zm194.877-60.83L161.994,18.85,169.631,0,204.18,25.329a93.056,93.056,0,0,1,23.485,9.423c1.486,1.351,3.28,4.087-2.879,3.615s-12.658-.694-13.508,1.4,2.878,4.605,1.159,7.435a.817.817,0,0,1-.749.4Q208.652,47.609,196.206,33.014Z" transform="translate(37.001 99.714)"/>
      <path id="Coat_Back-2" data-name="Coat Back" d="M0,2.413,9.19,0C46.419,26.827,65.655,82.94,110.745,109.613l-9.107,13.533C27.231,120.486,2.865,52.12,0,2.413Z" transform="matrix(0.996, 0.087, -0.087, 0.996, 138.515, 3.362)"/>
      <path id="Shirt-2" data-name="Shirt" d="M0,123.276H82.868c3.787,0,3.073-5.459,2.526-8.214C79.077,83.269,54.416,49,54.416,3.742L30.512,0C10.741,31.747,3.9,70.834,0,123.276Z" transform="translate(97.478)"/>
      <path id="Coat_Front-2" data-name="Coat Front" d="M.11,172.492C-1.8,110.769,21.605,63.27,41.193,34.632a12.572,12.572,0,0,1-10.757-6.6C21.7,12.295,24.855,3.629,34.192.78S51.855,3.8,66.731,3.8a11.613,11.613,0,0,1,1.774.126l7.932.452s32.2,108.97,17.763,145.406H28.7a207.365,207.365,0,0,1-10.818,22.708Z" transform="translate(59.46 -3.799)"/>
      <path id="Shade-2" data-name="Shade" d="M24.481,39.52H0C4.49,28.754,9.443,15.458,14.72,0c2.2,19.05,5.481,32.345,9.76,39.518Z" transform="translate(88.16 106.465)"/>
    </g>
    <g id="Head_Front-3" data-name="Head/Front" transform="translate(241.269 559.287)">
      <g id="Head-5" data-name="Head" transform="translate(0)">
        <path id="Head-6" data-name="Head" d="M0,76.03,8.609,35.921C3.808,30.288.558,23.384,1.1,15.649,2.666-6.64,33.706-1.736,39.743,9.513s5.321,39.785-2.482,41.8c-3.112.8-9.742-1.162-16.489-5.228l4.235,29.95Z" transform="translate(0 0)"/>
      </g>
    </g>
    <g id="Body_Long_Sleeve_1-3" data-name="Body/Long Sleeve 1" transform="translate(107.923 612.404)">
      <path id="Skin-3" data-name="Skin" d="M36.286,134.886,0,120.275l8.1-19.443L44.743,126.96q14.908,3.906,24.91,9.72c1.575,1.393,3.479,4.216-3.054,3.728s-13.426-.716-14.326,1.449,3.051,4.751,1.229,7.67a.873.873,0,0,1-.8.416Q49.486,149.942,36.286,134.886ZM11.947,26.286,55.49,13.593A99.272,99.272,0,0,1,78.474.126c2.094-.382,5.561-.161,1.228,4.612s-8.668,9.981-7.431,11.982,5.744.493,7.049,3.662q1.3,3.17-22.4,4.541L23.064,44.27Z" transform="translate(207.985 -23.675)"/>
      <path id="Coat_Back-3" data-name="Coat Back" d="M15.468-.111c28.626,29.734,63.666,49.019,111.524,66L116.18,86.743C66.7,82.551,40.26,79.108,19.732,49.268,14.58,41.779,5.46,15.949-.019,2.54Z" transform="matrix(0.966, 0.259, -0.259, 0.966, 144.201, 2.893)"/>
      <path id="Shirt-3" data-name="Shirt" d="M0,127.165H88.453S58.4,38.159,57.747,4.988c-.022-1.127-2.166-3.114-3.115-2.854C44.226,4.988,32.362,0,32.362,0,11.393,32.749,4.141,73.069,0,127.165Z" transform="translate(103.386)"/>
      <path id="Coat_Front-3" data-name="Coat Front" d="M1.633,164.653c-7.49-48.884,12.2-116.66,30.447-150.847a6.209,6.209,0,0,1,5.676-3.767h13.7l.018.053c4.617.036,9.757.216,15.364.394C92.025,11.291,126.608,12.1,165.41,0l4.684,22.726C134.239,45.119,97.932,62.467,66.118,60c13.814,57.542,13.177,104.65-17.321,104.65Z" transform="translate(91.818 -10.039)"/>
    </g>
    <path id="Hair-3" data-name="Hair" d="M9.032,42.274C4.646,39.754,1.3,34.656.314,28.971A21.087,21.087,0,0,1,.83,19.5a23.752,23.752,0,0,1,2.416-5.574C7.3-2.045,24.067-.611,36.615.824c6.11.7,11.22,1.4,13.372.087C51.423,9.53,46.791,16.48,30.5,15.133c-3.543,1.9-6.1,5.465-9.215,10.254a6.843,6.843,0,0,0-2.419-.437,6.486,6.486,0,0,0-6.614,6.334,6.157,6.157,0,0,0,1.992,4.531c-1.7,2.3-3.4,4.408-5.21,6.458h0Z" transform="translate(236.875 558.364)" fill="#191847"/>
    <g id="Body_Long_Sleeve" data-name="Body/Long Sleeve" transform="translate(1178 620)">
      <path id="Skin-4" data-name="Skin" d="M1.227,127.994c-1.116-.688-2.338-3.28.615-5.3C9.2,117.644,19.8,108.814,21.236,105.908c2.93-5.945,28.571-82.459,28.571-82.459l21.9.083s-36.017,81.05-37.56,84.874c-2.314,5.734,2.583,14.468,4.676,19.161-3.3,1.477-4.834-.409-6.512-2.293-1.789-2.011-3.745-4.02-8.184-1.954-5.68,2.643-10.377,6.838-15.975,6.837A12.99,12.99,0,0,1,1.227,127.994ZM173.837,14.311,213.32,8.925A86.089,86.089,0,0,1,235.118,0c1.867-.054,4.837.625.412,4.313s-8.913,7.768-8.124,9.736,4.9,1.236,5.585,4.263q.682,3.027-20.032.984L180.921,32Z" transform="translate(18.163 51)"/>
      <path id="Clothes_Back" data-name="Clothes Back" d="M0,.356,17.179,0c7.536,37.688,32.551,59.721,83.138,47.1l11.1,48.411c-47.4,10.391-91.133-5.126-104.3-56.344C3.714,25.9.728,12.055,0,.356Z" transform="matrix(0.996, 0.087, -0.087, 0.996, 127.98, 4.645)"/>
      <path id="Clothes" d="M0,147Q17.855,52,75.374,0h1.7l.014.016,25.977,5.949c0,44.68,14.233,73.185,21.533,106.034H54.442c-.988,11.35-1.6,23.019-1.912,35Z" transform="translate(42.402)"/>
      <path id="Shade-3" data-name="Shade" d="M14.259,63.741H0c2.142-24.6,5.918-45.99,11.544-65.4-.77,12.956-1.03,24.666-.772,34.8.328,12.906,1.5,23.2,3.487,30.595Z" transform="translate(96.844 48.259)" fill="rgba(0,0,0,0.1)"/>
    </g>
    <g id="Head_Front_Rad" data-name="Head/Front/Rad" transform="translate(1243 538)">
      <g id="Head-7" data-name="Head" transform="translate(54 31)">
        <path id="Head-8" data-name="Head" d="M0,73,8.262,34.49C3.655,29.081.536,22.452,1.057,15.026c1.5-21.4,31.292-16.692,37.086-5.891s5.107,38.2-2.382,40.129c-2.987.77-9.349-1.116-15.825-5.019L24,73Z"/>
      </g>
      <path id="hair-4" data-name="hair" d="M-58.407,23.9A7.5,7.5,0,0,1-59.97,21a29.39,29.39,0,0,1-1-3.3c-.5-2.249-.509-4.836,1.1-6.582a7.548,7.548,0,0,1,5-2.165,9.187,9.187,0,0,1,3.545.449c1.129.371,2.1,1.111,3.2,1.57a14.306,14.306,0,0,1,1.687-7.03,7.008,7.008,0,0,1,5.218-3.4,10.347,10.347,0,0,1,6.357,1.28c.494.267.984.547,1.453.865a4.071,4.071,0,0,0,1.261.693c.513.121.768-.176,1.1-.55a8.368,8.368,0,0,1,1.3-1.168A7.647,7.647,0,0,1-22.6.423a6.649,6.649,0,0,1,2.917,2.109c.666.873,1.14,2.258,2.059,2.866.39.258.665-.084,1.02-.337.533-.38,1.042-.8,1.581-1.169A7.242,7.242,0,0,1-12.57,2.781c1.286-.3,3.064-.228,3.432,1.457A6.954,6.954,0,0,1-9.15,6.186c-.061.876-.125,1.751-.2,2.625a18.954,18.954,0,0,1-.256,1.957,2.863,2.863,0,0,0-.127,1.343c.186.435,1.046.188,1.413.2A5.582,5.582,0,0,1-6.2,12.78a2.286,2.286,0,0,1,1.285,1.189,2.136,2.136,0,0,1,.036,1.118,3.335,3.335,0,0,0,.068,1.147c.974-.48,4.349-1.545,4.774.2a2.731,2.731,0,0,1-.426,1.728,14.979,14.979,0,0,1-1.573,2.395,21.412,21.412,0,0,1-4.19,4.065,2.746,2.746,0,0,1,.716,4.6,3.4,3.4,0,0,1-2.5.725,5.524,5.524,0,0,0-1.033-.082,2.47,2.47,0,0,1-.468.158,13.928,13.928,0,0,1-3.832-.486,12.636,12.636,0,0,1-5.844-3.056,1.8,1.8,0,0,0-1.352-.621c-.5.005-1,.143-1.5.156a10.791,10.791,0,0,1-3.761-1.048,14.189,14.189,0,0,1-1.232,5c-.556,1.223-1.717,1.4-2.858,1.508-3.649.343-7.31-.04-10.963-.035,3.536.8,7.191,1.129,10.7,2.069,1.584.425.375,1.493-.3,2.233a12.87,12.87,0,0,0-2.52,4.32c-1.73-2.255-4.788-3.741-7.5-3.048-2.993.765-5.1,4.813-3.187,7.723,1.111,1.689,3.118,2.341,4.788,3.067-1.3,1.354-1.618,3.354-2.4,5.039a3.606,3.606,0,0,1-1.794,2.06,2.1,2.1,0,0,0-.947.377c-.313.323-.387.684-.786.961a4.434,4.434,0,0,1-5.494-.423,3.586,3.586,0,0,1,.122-4.7c-1.7-.708-4.791-1.618-4.116-4.263-3.679-.244-12.611-6.211-7.674-10.571-2.71-1.531-5.2-5.274-3.459-8.574,1.34-2.541,4.457-3.676,7.015-3.811" transform="translate(103 15)"/>
    </g>
    <g id="Body_Jacket_2" data-name="Body/Jacket 2" transform="translate(832 609)">
      <path id="Skin-5" data-name="Skin" d="M31.789,116.267c-1.363-2.293-2.913-4.586-7.622-3.416-8.4,2.087-15.528,7.442-23.363.22-.963-.887-1.669-3.663,1.616-5.087C10.6,104.437,22.692,97.8,24.652,95.218Q28.663,89.944,49.508,35L70,39.065Q39.088,96.674,36.845,100.13c-3.365,5.185-.225,14.687.934,19.691a6.313,6.313,0,0,1-1.427.178C33.886,120,32.9,118.134,31.789,116.267ZM196,30.617,232.234,14.7A85.87,85.87,0,0,1,250.623.282c1.768-.563,4.787-.733,1.565,3.973s-6.4,9.8-5.112,11.45,5.017-.171,6.49,2.511q1.474,2.682-18.859,6.417L207.57,45.439Z" transform="translate(2 47)"/>
      <path id="Coat_Back-4" data-name="Coat Back" d="M0,2.231,8.485,0C28.84,16.559,40.322,59.616,53.332,64.31c12.3,4.438,28.6-2.324,47.89-11.217l7.293,13.1c-16.386,21.165-53.5,41.081-69.953,33C12.253,86.281,1.767,32.855,0,2.231Z" transform="matrix(0.996, 0.087, -0.087, 0.996, 127.889, 3.109)"/>
      <path id="Shirt-4" data-name="Shirt" d="M0,114H76.511c3.5,0,2.837-5.048,2.332-7.6C73.011,77,50.241,45.312,50.241,3.461L28.172,0C9.917,29.358,3.6,65.5,0,114Z" transform="translate(90)"/>
      <path id="Coat_Front-4" data-name="Coat Front" d="M0,141.859Q15.5,45.756,89.748,0h8.738s29.719,101.306,16.386,135H46c1.09-16.437,4.583-33.819,9.369-50.767q-23.4,42.2-39.332,60.767Z" transform="translate(27)"/>
    </g>
    <g id="Head_Front_Short_1" data-name="Head/Front/Short 1" transform="translate(892 537)">
      <g id="Head-9" data-name="Head" transform="translate(54 31)">
        <path id="Head-10" data-name="Head" d="M0,73,8.262,34.49C3.655,29.081.536,22.452,1.057,15.026c1.5-21.4,31.292-16.692,37.086-5.891s5.107,38.2-2.382,40.129c-2.987.77-9.349-1.116-15.825-5.019L24,73Z"/>
      </g>
      <path id="Hair-5" data-name="Hair" d="M8.191,40.047C4.212,37.66,1.182,32.83.283,27.445a20.834,20.834,0,0,1,.468-8.973,23.034,23.034,0,0,1,2.191-5.28C6.618-1.938,21.828-.579,33.209.78c5.542.662,10.177,1.325,12.129.083,1.3,8.165-2.9,14.749-17.675,13.473-3.213,1.8-5.531,5.177-8.358,9.714a6,6,0,0,0-6.386,9.878C11.378,36.1,9.833,38.1,8.193,40.046h0Z" transform="translate(53.889 27.364)"/>
    </g>
    <g id="Ellipse_8" data-name="Ellipse 8" transform="translate(125 516)" fill="none" stroke="#000" stroke-width="3">
      <circle cx="147" cy="147" r="147" stroke="none"/>
      <circle cx="147" cy="147" r="145.5" fill="none"/>
    </g>
    <g id="Head_Front-4" data-name="Head/Front" transform="translate(241.269 559.287)">
      <g id="Head-11" data-name="Head" transform="translate(0)">
        <path id="Head-12" data-name="Head" d="M0,76.03,8.609,35.921C3.808,30.288.558,23.384,1.1,15.649,2.666-6.64,33.706-1.736,39.743,9.513s5.321,39.785-2.482,41.8c-3.112.8-9.742-1.162-16.489-5.228l4.235,29.95Z" transform="translate(0 0)"/>
      </g>
    </g>
    <g id="Body_Long_Sleeve_1-4" data-name="Body/Long Sleeve 1" transform="translate(107.923 612.404)">
      <path id="Skin-6" data-name="Skin" d="M36.286,134.886,0,120.275l8.1-19.443L44.743,126.96q14.908,3.906,24.91,9.72c1.575,1.393,3.479,4.216-3.054,3.728s-13.426-.716-14.326,1.449,3.051,4.751,1.229,7.67a.873.873,0,0,1-.8.416Q49.486,149.942,36.286,134.886ZM11.947,26.286,55.49,13.593A99.272,99.272,0,0,1,78.474.126c2.094-.382,5.561-.161,1.228,4.612s-8.668,9.981-7.431,11.982,5.744.493,7.049,3.662q1.3,3.17-22.4,4.541L23.064,44.27Z" transform="translate(207.985 -23.675)"/>
      <path id="Coat_Back-5" data-name="Coat Back" d="M15.468-.111c28.626,29.734,63.666,49.019,111.524,66L116.18,86.743C66.7,82.551,40.26,79.108,19.732,49.268,14.58,41.779,5.46,15.949-.019,2.54Z" transform="matrix(0.966, 0.259, -0.259, 0.966, 144.201, 2.893)"/>
      <path id="Shirt-5" data-name="Shirt" d="M0,127.165H88.453S58.4,38.159,57.747,4.988c-.022-1.127-2.166-3.114-3.115-2.854C44.226,4.988,32.362,0,32.362,0,11.393,32.749,4.141,73.069,0,127.165Z" transform="translate(103.386)"/>
      <path id="Coat_Front-5" data-name="Coat Front" d="M1.633,164.653c-7.49-48.884,12.2-116.66,30.447-150.847a6.209,6.209,0,0,1,5.676-3.767h13.7l.018.053c4.617.036,9.757.216,15.364.394C92.025,11.291,126.608,12.1,165.41,0l4.684,22.726C134.239,45.119,97.932,62.467,66.118,60c13.814,57.542,13.177,104.65-17.321,104.65Z" transform="translate(91.818 -10.039)"/>
    </g>
    <g id="Ellipse_9" data-name="Ellipse 9" transform="translate(125 516)" fill="none" stroke="#000" stroke-width="3">
      <circle cx="147" cy="147" r="147" stroke="none"/>
      <circle cx="147" cy="147" r="145.5" fill="none"/>
    </g>
    <g id="Head_Front-5" data-name="Head/Front" transform="translate(241.269 559.287)">
      <g id="Head-13" data-name="Head" transform="translate(0)">
        <path id="Head-14" data-name="Head" d="M0,76.03,8.609,35.921C3.808,30.288.558,23.384,1.1,15.649,2.666-6.64,33.706-1.736,39.743,9.513s5.321,39.785-2.482,41.8c-3.112.8-9.742-1.162-16.489-5.228l4.235,29.95Z" transform="translate(0 0)"/>
      </g>
    </g>
    <g id="Body_Long_Sleeve_1-5" data-name="Body/Long Sleeve 1" transform="translate(107.923 612.404)">
      <path id="Skin-7" data-name="Skin" d="M36.286,134.886,0,120.275l8.1-19.443L44.743,126.96q14.908,3.906,24.91,9.72c1.575,1.393,3.479,4.216-3.054,3.728s-13.426-.716-14.326,1.449,3.051,4.751,1.229,7.67a.873.873,0,0,1-.8.416Q49.486,149.942,36.286,134.886ZM11.947,26.286,55.49,13.593A99.272,99.272,0,0,1,78.474.126c2.094-.382,5.561-.161,1.228,4.612s-8.668,9.981-7.431,11.982,5.744.493,7.049,3.662q1.3,3.17-22.4,4.541L23.064,44.27Z" transform="translate(207.985 -23.675)"/>
      <path id="Coat_Back-6" data-name="Coat Back" d="M15.468-.111c28.626,29.734,63.666,49.019,111.524,66L116.18,86.743C66.7,82.551,40.26,79.108,19.732,49.268,14.58,41.779,5.46,15.949-.019,2.54Z" transform="matrix(0.966, 0.259, -0.259, 0.966, 144.201, 2.893)"/>
      <path id="Shirt-6" data-name="Shirt" d="M0,127.165H88.453S58.4,38.159,57.747,4.988c-.022-1.127-2.166-3.114-3.115-2.854C44.226,4.988,32.362,0,32.362,0,11.393,32.749,4.141,73.069,0,127.165Z" transform="translate(103.386)"/>
      <path id="Coat_Front-6" data-name="Coat Front" d="M1.633,164.653c-7.49-48.884,12.2-116.66,30.447-150.847a6.209,6.209,0,0,1,5.676-3.767h13.7l.018.053c4.617.036,9.757.216,15.364.394C92.025,11.291,126.608,12.1,165.41,0l4.684,22.726C134.239,45.119,97.932,62.467,66.118,60c13.814,57.542,13.177,104.65-17.321,104.65Z" transform="translate(91.818 -10.039)"/>
    </g>
  </g>
</svg>
