<svg xmlns="http://www.w3.org/2000/svg" width="226" height="226" viewBox="0 0 294 294">
  <g id="Group_4" data-name="Group 4" transform="translate(-1165 -516)">
    <g id="Ellipse_5" data-name="Ellipse 5" transform="translate(1165 516)" fill="none" stroke="#000" stroke-width="3">
      <circle cx="147" cy="147" r="147" stroke="none"/>
      <circle cx="147" cy="147" r="145.5" fill="none"/>
    </g>
    <g id="Body_Long_Sleeve" data-name="Body/Long Sleeve" transform="translate(1178 620)">
      <path id="Skin" d="M1.227,127.994c-1.116-.688-2.338-3.28.615-5.3C9.2,117.644,19.8,108.814,21.236,105.908c2.93-5.945,28.571-82.459,28.571-82.459l21.9.083s-36.017,81.05-37.56,84.874c-2.314,5.734,2.583,14.468,4.676,19.161-3.3,1.477-4.834-.409-6.512-2.293-1.789-2.011-3.745-4.02-8.184-1.954-5.68,2.643-10.377,6.838-15.975,6.837A12.99,12.99,0,0,1,1.227,127.994ZM173.837,14.311,213.32,8.925A86.089,86.089,0,0,1,235.118,0c1.867-.054,4.837.625.412,4.313s-8.913,7.768-8.124,9.736,4.9,1.236,5.585,4.263q.682,3.027-20.032.984L180.921,32Z" transform="translate(18.163 51)"/>
      <path id="Clothes_Back" data-name="Clothes Back" d="M0,.356,17.179,0c7.536,37.688,32.551,59.721,83.138,47.1l11.1,48.411c-47.4,10.391-91.133-5.126-104.3-56.344C3.714,25.9.728,12.055,0,.356Z" transform="matrix(0.996, 0.087, -0.087, 0.996, 127.98, 4.645)"/>
      <path id="Clothes" d="M0,147Q17.855,52,75.374,0h1.7l.014.016,25.977,5.949c0,44.68,14.233,73.185,21.533,106.034H54.442c-.988,11.35-1.6,23.019-1.912,35Z" transform="translate(42.402)"/>
      <path id="Shade" d="M14.259,63.741H0c2.142-24.6,5.918-45.99,11.544-65.4-.77,12.956-1.03,24.666-.772,34.8.328,12.906,1.5,23.2,3.487,30.595Z" transform="translate(96.844 48.259)" fill="rgba(0,0,0,0.1)"/>
    </g>
    <g id="Head_Front_Rad" data-name="Head/Front/Rad" transform="translate(1243 538)">
      <g id="Head" transform="translate(54 31)">
        <path id="Head-2" data-name="Head" d="M0,73,8.262,34.49C3.655,29.081.536,22.452,1.057,15.026c1.5-21.4,31.292-16.692,37.086-5.891s5.107,38.2-2.382,40.129c-2.987.77-9.349-1.116-15.825-5.019L24,73Z"/>
      </g>
      <path id="hair" d="M-58.407,23.9A7.5,7.5,0,0,1-59.97,21a29.39,29.39,0,0,1-1-3.3c-.5-2.249-.509-4.836,1.1-6.582a7.548,7.548,0,0,1,5-2.165,9.187,9.187,0,0,1,3.545.449c1.129.371,2.1,1.111,3.2,1.57a14.306,14.306,0,0,1,1.687-7.03,7.008,7.008,0,0,1,5.218-3.4,10.347,10.347,0,0,1,6.357,1.28c.494.267.984.547,1.453.865a4.071,4.071,0,0,0,1.261.693c.513.121.768-.176,1.1-.55a8.368,8.368,0,0,1,1.3-1.168A7.647,7.647,0,0,1-22.6.423a6.649,6.649,0,0,1,2.917,2.109c.666.873,1.14,2.258,2.059,2.866.39.258.665-.084,1.02-.337.533-.38,1.042-.8,1.581-1.169A7.242,7.242,0,0,1-12.57,2.781c1.286-.3,3.064-.228,3.432,1.457A6.954,6.954,0,0,1-9.15,6.186c-.061.876-.125,1.751-.2,2.625a18.954,18.954,0,0,1-.256,1.957,2.863,2.863,0,0,0-.127,1.343c.186.435,1.046.188,1.413.2A5.582,5.582,0,0,1-6.2,12.78a2.286,2.286,0,0,1,1.285,1.189,2.136,2.136,0,0,1,.036,1.118,3.335,3.335,0,0,0,.068,1.147c.974-.48,4.349-1.545,4.774.2a2.731,2.731,0,0,1-.426,1.728,14.979,14.979,0,0,1-1.573,2.395,21.412,21.412,0,0,1-4.19,4.065,2.746,2.746,0,0,1,.716,4.6,3.4,3.4,0,0,1-2.5.725,5.524,5.524,0,0,0-1.033-.082,2.47,2.47,0,0,1-.468.158,13.928,13.928,0,0,1-3.832-.486,12.636,12.636,0,0,1-5.844-3.056,1.8,1.8,0,0,0-1.352-.621c-.5.005-1,.143-1.5.156a10.791,10.791,0,0,1-3.761-1.048,14.189,14.189,0,0,1-1.232,5c-.556,1.223-1.717,1.4-2.858,1.508-3.649.343-7.31-.04-10.963-.035,3.536.8,7.191,1.129,10.7,2.069,1.584.425.375,1.493-.3,2.233a12.87,12.87,0,0,0-2.52,4.32c-1.73-2.255-4.788-3.741-7.5-3.048-2.993.765-5.1,4.813-3.187,7.723,1.111,1.689,3.118,2.341,4.788,3.067-1.3,1.354-1.618,3.354-2.4,5.039a3.606,3.606,0,0,1-1.794,2.06,2.1,2.1,0,0,0-.947.377c-.313.323-.387.684-.786.961a4.434,4.434,0,0,1-5.494-.423,3.586,3.586,0,0,1,.122-4.7c-1.7-.708-4.791-1.618-4.116-4.263-3.679-.244-12.611-6.211-7.674-10.571-2.71-1.531-5.2-5.274-3.459-8.574,1.34-2.541,4.457-3.676,7.015-3.811" transform="translate(103 15)"/>
    </g>
  </g>
</svg>
