<svg xmlns="http://www.w3.org/2000/svg" width="294" height="226" viewBox="0 0 294 294">
  <g id="Group_3" data-name="Group 3" transform="translate(-818 -516)">
    <g id="Ellipse_4" data-name="Ellipse 4" transform="translate(818 516)" fill="none" stroke="#000" stroke-width="3">
      <circle cx="147" cy="147" r="147" stroke="none"/>
      <circle cx="147" cy="147" r="145.5" fill="none"/>
    </g>
    <g id="Body_Jacket_2" data-name="Body/Jacket 2" transform="translate(832 609)">
      <path id="Skin" d="M31.789,116.267c-1.363-2.293-2.913-4.586-7.622-3.416-8.4,2.087-15.528,7.442-23.363.22-.963-.887-1.669-3.663,1.616-5.087C10.6,104.437,22.692,97.8,24.652,95.218Q28.663,89.944,49.508,35L70,39.065Q39.088,96.674,36.845,100.13c-3.365,5.185-.225,14.687.934,19.691a6.313,6.313,0,0,1-1.427.178C33.886,120,32.9,118.134,31.789,116.267ZM196,30.617,232.234,14.7A85.87,85.87,0,0,1,250.623.282c1.768-.563,4.787-.733,1.565,3.973s-6.4,9.8-5.112,11.45,5.017-.171,6.49,2.511q1.474,2.682-18.859,6.417L207.57,45.439Z" transform="translate(2 47)"/>
      <path id="Coat_Back" data-name="Coat Back" d="M0,2.231,8.485,0C28.84,16.559,40.322,59.616,53.332,64.31c12.3,4.438,28.6-2.324,47.89-11.217l7.293,13.1c-16.386,21.165-53.5,41.081-69.953,33C12.253,86.281,1.767,32.855,0,2.231Z" transform="matrix(0.996, 0.087, -0.087, 0.996, 127.889, 3.109)"/>
      <path id="Shirt" d="M0,114H76.511c3.5,0,2.837-5.048,2.332-7.6C73.011,77,50.241,45.312,50.241,3.461L28.172,0C9.917,29.358,3.6,65.5,0,114Z" transform="translate(90)"/>
      <path id="Coat_Front" data-name="Coat Front" d="M0,141.859Q15.5,45.756,89.748,0h8.738s29.719,101.306,16.386,135H46c1.09-16.437,4.583-33.819,9.369-50.767q-23.4,42.2-39.332,60.767Z" transform="translate(27)"/>
    </g>
    <g id="Head_Front_Short_1" data-name="Head/Front/Short 1" transform="translate(892 537)">
      <g id="Head" transform="translate(54 31)">
        <path id="Head-2" data-name="Head" d="M0,73,8.262,34.49C3.655,29.081.536,22.452,1.057,15.026c1.5-21.4,31.292-16.692,37.086-5.891s5.107,38.2-2.382,40.129c-2.987.77-9.349-1.116-15.825-5.019L24,73Z"/>
      </g>
      <path id="Hair" d="M8.191,40.047C4.212,37.66,1.182,32.83.283,27.445a20.834,20.834,0,0,1,.468-8.973,23.034,23.034,0,0,1,2.191-5.28C6.618-1.938,21.828-.579,33.209.78c5.542.662,10.177,1.325,12.129.083,1.3,8.165-2.9,14.749-17.675,13.473-3.213,1.8-5.531,5.177-8.358,9.714a6,6,0,0,0-6.386,9.878C11.378,36.1,9.833,38.1,8.193,40.046h0Z" transform="translate(53.889 27.364)"/>
    </g>
  </g>
</svg>
