<svg xmlns="http://www.w3.org/2000/svg" width="226" height="226" viewBox="0 0 298.824 305.127">
  <g id="Group_7" data-name="Group 7" transform="translate(-520 -103)">
    <g id="Group_6" data-name="Group 6" transform="translate(-991 -413)">
      <g id="Ellipse_6" data-name="Ellipse 6" transform="translate(1511 516)" fill="none" stroke="#000" stroke-width="3">
        <circle cx="147" cy="147" r="147" stroke="none"/>
        <circle cx="147" cy="147" r="145.5" fill="none"/>
      </g>
      <g id="Head_Front" data-name="Head/Front" transform="matrix(0.966, -0.259, 0.259, 0.966, 1632.695, 549.523)">
        <g id="Head" transform="translate(0 0)">
          <path id="Head-2" data-name="Head" d="M0,78.939,8.949,37.3C3.958,31.447.58,24.279,1.144,16.248,2.771-6.894,35.036-1.8,41.312,9.877s5.531,41.307-2.58,43.394c-3.235.833-10.126-1.207-17.14-5.428l4.4,31.1Z" transform="translate(0 0)"/>
        </g>
      </g>
      <g id="Body_Long_Sleeve_1" data-name="Body/Long Sleeve 1" transform="matrix(0.995, 0.105, -0.105, 0.995, 1534.073, 591.036)">
        <path id="Skin" d="M1.329,93.844C.12,93.1-1.2,90.3,1.994,88.107,9.964,82.652,21.448,73.1,23,69.961,26.174,63.532,36.982.874,36.982.874l22.633.09s-20.963,67.564-22.633,71.7c-2.506,6.2,2.8,15.646,5.065,20.721-3.575,1.6-5.236-.442-7.053-2.481-1.938-2.173-4.056-4.346-8.864-2.113-6.152,2.858-11.239,7.394-17.3,7.394A14.084,14.084,0,0,1,1.329,93.844Zm194.877-60.83L161.994,18.85,169.631,0,204.18,25.329a93.056,93.056,0,0,1,23.485,9.423c1.486,1.351,3.28,4.087-2.879,3.615s-12.658-.694-13.508,1.4,2.878,4.605,1.159,7.435a.817.817,0,0,1-.749.4Q208.652,47.609,196.206,33.014Z" transform="translate(37.001 99.714)"/>
        <path id="Coat_Back" data-name="Coat Back" d="M0,2.413,9.19,0C46.419,26.827,65.655,82.94,110.745,109.613l-9.107,13.533C27.231,120.486,2.865,52.12,0,2.413Z" transform="matrix(0.996, 0.087, -0.087, 0.996, 138.515, 3.362)"/>
        <path id="Shirt" d="M0,123.276H82.868c3.787,0,3.073-5.459,2.526-8.214C79.077,83.269,54.416,49,54.416,3.742L30.512,0C10.741,31.747,3.9,70.834,0,123.276Z" transform="translate(97.478)"/>
        <path id="Coat_Front" data-name="Coat Front" d="M.11,172.492C-1.8,110.769,21.605,63.27,41.193,34.632a12.572,12.572,0,0,1-10.757-6.6C21.7,12.295,24.855,3.629,34.192.78S51.855,3.8,66.731,3.8a11.613,11.613,0,0,1,1.774.126l7.932.452s32.2,108.97,17.763,145.406H28.7a207.365,207.365,0,0,1-10.818,22.708Z" transform="translate(59.46 -3.799)"/>
        <path id="Shade" d="M24.481,39.52H0C4.49,28.754,9.443,15.458,14.72,0c2.2,19.05,5.481,32.345,9.76,39.518Z" transform="translate(88.16 106.465)"/>
      </g>
    </g>
  </g>
</svg>
