<svg xmlns="http://www.w3.org/2000/svg" width="226" height="226" viewBox="0 0 311.077 305">
  <g id="Group_2" data-name="Group 2" transform="translate(-107.923 -516)">
    <g id="Ellipse_2" data-name="Ellipse 2" transform="translate(125 516)" fill="none" stroke="#000" stroke-width="3">
      <circle cx="147" cy="147" r="147" stroke="none"/>
      <circle cx="147" cy="147" r="145.5" fill="none"/>
    </g>
    <g id="Head_Front" data-name="Head/Front" transform="translate(241.269 559.287)">
      <g id="Head" transform="translate(0)">
        <path id="Head-2" data-name="Head" d="M0,76.03,8.609,35.921C3.808,30.288.558,23.384,1.1,15.649,2.666-6.64,33.706-1.736,39.743,9.513s5.321,39.785-2.482,41.8c-3.112.8-9.742-1.162-16.489-5.228l4.235,29.95Z" transform="translate(0 0)"/>
      </g>
    </g>
    <g id="Body_Long_Sleeve_1" data-name="Body/Long Sleeve 1" transform="translate(107.923 612.404)">
      <path id="Skin" d="M36.286,134.886,0,120.275l8.1-19.443L44.743,126.96q14.908,3.906,24.91,9.72c1.575,1.393,3.479,4.216-3.054,3.728s-13.426-.716-14.326,1.449,3.051,4.751,1.229,7.67a.873.873,0,0,1-.8.416Q49.486,149.942,36.286,134.886ZM11.947,26.286,55.49,13.593A99.272,99.272,0,0,1,78.474.126c2.094-.382,5.561-.161,1.228,4.612s-8.668,9.981-7.431,11.982,5.744.493,7.049,3.662q1.3,3.17-22.4,4.541L23.064,44.27Z" transform="translate(207.985 -23.675)"/>
      <path id="Coat_Back" data-name="Coat Back" d="M15.468-.111c28.626,29.734,63.666,49.019,111.524,66L116.18,86.743C66.7,82.551,40.26,79.108,19.732,49.268,14.58,41.779,5.46,15.949-.019,2.54Z" transform="matrix(0.966, 0.259, -0.259, 0.966, 144.201, 2.893)"/>
      <path id="Shirt" d="M0,127.165H88.453S58.4,38.159,57.747,4.988c-.022-1.127-2.166-3.114-3.115-2.854C44.226,4.988,32.362,0,32.362,0,11.393,32.749,4.141,73.069,0,127.165Z" transform="translate(103.386)"/>
      <path id="Coat_Front" data-name="Coat Front" d="M1.633,164.653c-7.49-48.884,12.2-116.66,30.447-150.847a6.209,6.209,0,0,1,5.676-3.767h13.7l.018.053c4.617.036,9.757.216,15.364.394C92.025,11.291,126.608,12.1,165.41,0l4.684,22.726C134.239,45.119,97.932,62.467,66.118,60c13.814,57.542,13.177,104.65-17.321,104.65Z" transform="translate(91.818 -10.039)"/>
    </g>
    <path id="Hair" d="M9.032,42.274C4.646,39.754,1.3,34.656.314,28.971A21.087,21.087,0,0,1,.83,19.5a23.752,23.752,0,0,1,2.416-5.574C7.3-2.045,24.067-.611,36.615.824c6.11.7,11.22,1.4,13.372.087C51.423,9.53,46.791,16.48,30.5,15.133c-3.543,1.9-6.1,5.465-9.215,10.254a6.843,6.843,0,0,0-2.419-.437,6.486,6.486,0,0,0-6.614,6.334,6.157,6.157,0,0,0,1.992,4.531c-1.7,2.3-3.4,4.408-5.21,6.458h0Z" transform="translate(236.875 558.364)" fill="#000"/>
    <g id="Ellipse_8" data-name="Ellipse 8" transform="translate(125 516)" fill="none" stroke="#000" stroke-width="3">
      <circle cx="147" cy="147" r="147" stroke="none"/>
      <circle cx="147" cy="147" r="145.5" fill="none"/>
    </g>
    <g id="Head_Front-2" data-name="Head/Front" transform="translate(241.269 559.287)">
      <g id="Head-3" data-name="Head" transform="translate(0)">
        <path id="Head-4" data-name="Head" d="M0,76.03,8.609,35.921C3.808,30.288.558,23.384,1.1,15.649,2.666-6.64,33.706-1.736,39.743,9.513s5.321,39.785-2.482,41.8c-3.112.8-9.742-1.162-16.489-5.228l4.235,29.95Z" transform="translate(0 0)"/>
      </g>
    </g>
    <g id="Body_Long_Sleeve_1-2" data-name="Body/Long Sleeve 1" transform="translate(107.923 612.404)">
      <path id="Skin-2" data-name="Skin" d="M36.286,134.886,0,120.275l8.1-19.443L44.743,126.96q14.908,3.906,24.91,9.72c1.575,1.393,3.479,4.216-3.054,3.728s-13.426-.716-14.326,1.449,3.051,4.751,1.229,7.67a.873.873,0,0,1-.8.416Q49.486,149.942,36.286,134.886ZM11.947,26.286,55.49,13.593A99.272,99.272,0,0,1,78.474.126c2.094-.382,5.561-.161,1.228,4.612s-8.668,9.981-7.431,11.982,5.744.493,7.049,3.662q1.3,3.17-22.4,4.541L23.064,44.27Z" transform="translate(207.985 -23.675)"/>
      <path id="Coat_Back-2" data-name="Coat Back" d="M15.468-.111c28.626,29.734,63.666,49.019,111.524,66L116.18,86.743C66.7,82.551,40.26,79.108,19.732,49.268,14.58,41.779,5.46,15.949-.019,2.54Z" transform="matrix(0.966, 0.259, -0.259, 0.966, 144.201, 2.893)"/>
      <path id="Shirt-2" data-name="Shirt" d="M0,127.165H88.453S58.4,38.159,57.747,4.988c-.022-1.127-2.166-3.114-3.115-2.854C44.226,4.988,32.362,0,32.362,0,11.393,32.749,4.141,73.069,0,127.165Z" transform="translate(103.386)"/>
      <path id="Coat_Front-2" data-name="Coat Front" d="M1.633,164.653c-7.49-48.884,12.2-116.66,30.447-150.847a6.209,6.209,0,0,1,5.676-3.767h13.7l.018.053c4.617.036,9.757.216,15.364.394C92.025,11.291,126.608,12.1,165.41,0l4.684,22.726C134.239,45.119,97.932,62.467,66.118,60c13.814,57.542,13.177,104.65-17.321,104.65Z" transform="translate(91.818 -10.039)"/>
    </g>
    <g id="Ellipse_9" data-name="Ellipse 9" transform="translate(125 516)" fill="none" stroke="#000" stroke-width="3">
      <circle cx="147" cy="147" r="147" stroke="none"/>
      <circle cx="147" cy="147" r="145.5" fill="none"/>
    </g>
    <g id="Head_Front-3" data-name="Head/Front" transform="translate(241.269 559.287)">
      <g id="Head-5" data-name="Head" transform="translate(0)">
        <path id="Head-6" data-name="Head" d="M0,76.03,8.609,35.921C3.808,30.288.558,23.384,1.1,15.649,2.666-6.64,33.706-1.736,39.743,9.513s5.321,39.785-2.482,41.8c-3.112.8-9.742-1.162-16.489-5.228l4.235,29.95Z" transform="translate(0 0)"/>
      </g>
    </g>
    <g id="Body_Long_Sleeve_1-3" data-name="Body/Long Sleeve 1" transform="translate(107.923 612.404)">
      <path id="Skin-3" data-name="Skin" d="M36.286,134.886,0,120.275l8.1-19.443L44.743,126.96q14.908,3.906,24.91,9.72c1.575,1.393,3.479,4.216-3.054,3.728s-13.426-.716-14.326,1.449,3.051,4.751,1.229,7.67a.873.873,0,0,1-.8.416Q49.486,149.942,36.286,134.886ZM11.947,26.286,55.49,13.593A99.272,99.272,0,0,1,78.474.126c2.094-.382,5.561-.161,1.228,4.612s-8.668,9.981-7.431,11.982,5.744.493,7.049,3.662q1.3,3.17-22.4,4.541L23.064,44.27Z" transform="translate(207.985 -23.675)"/>
      <path id="Coat_Back-3" data-name="Coat Back" d="M15.468-.111c28.626,29.734,63.666,49.019,111.524,66L116.18,86.743C66.7,82.551,40.26,79.108,19.732,49.268,14.58,41.779,5.46,15.949-.019,2.54Z" transform="matrix(0.966, 0.259, -0.259, 0.966, 144.201, 2.893)"/>
      <path id="Shirt-3" data-name="Shirt" d="M0,127.165H88.453S58.4,38.159,57.747,4.988c-.022-1.127-2.166-3.114-3.115-2.854C44.226,4.988,32.362,0,32.362,0,11.393,32.749,4.141,73.069,0,127.165Z" transform="translate(103.386)"/>
      <path id="Coat_Front-3" data-name="Coat Front" d="M1.633,164.653c-7.49-48.884,12.2-116.66,30.447-150.847a6.209,6.209,0,0,1,5.676-3.767h13.7l.018.053c4.617.036,9.757.216,15.364.394C92.025,11.291,126.608,12.1,165.41,0l4.684,22.726C134.239,45.119,97.932,62.467,66.118,60c13.814,57.542,13.177,104.65-17.321,104.65Z" transform="translate(91.818 -10.039)"/>
    </g>
  </g>
</svg>
